<svg xmlns="http://www.w3.org/2000/svg" viewBox="0 0 64 64" fill="none">
  <defs>
    <linearGradient id="fg" x1="0%" y1="0%" x2="100%" y2="100%">
      <stop offset="0%" stop-color="#7C3AED"/>
      <stop offset="100%" stop-color="#3B82F6"/>
    </linearGradient>
    <linearGradient id="fg2" x1="0%" y1="0%" x2="100%" y2="100%">
      <stop offset="0%" stop-color="#A78BFA"/>
      <stop offset="100%" stop-color="#60A5FA"/>
    </linearGradient>
  </defs>

  <!-- Background -->
  <rect width="64" height="64" rx="14" fill="#0F172A"/>
  <rect x="1" y="1" width="62" height="62" rx="13" fill="none" stroke="url(#fg)" stroke-width="1" opacity="0.4"/>

  <!-- Abstract S mark -->
  <path d="M22,22 C22,16 26,12 32,12 L40,12 C46,12 50,16 50,22 C50,28 46,32 40,32 L28,32 C22,32 18,36 18,42 C18,48 22,52 28,52 L36,52"
        stroke="url(#fg)" stroke-width="4" stroke-linecap="round" fill="none"/>
  <path d="M42,42 C42,48 38,52 32,52 L28,52"
        stroke="url(#fg2)" stroke-width="4" stroke-linecap="round" fill="none" opacity="0.7"/>

  <!-- Center dot -->
  <circle cx="32" cy="32" r="2.5" fill="url(#fg)" opacity="0.8"/>
</svg>
