<svg xmlns="http://www.w3.org/2000/svg" viewBox="0 0 360 64" fill="none">
  <defs>
    <linearGradient id="mg" x1="0%" y1="0%" x2="100%" y2="100%">
      <stop offset="0%" stop-color="#7C3AED"/>
      <stop offset="100%" stop-color="#3B82F6"/>
    </linearGradient>
    <linearGradient id="mg2" x1="0%" y1="0%" x2="100%" y2="100%">
      <stop offset="0%" stop-color="#A78BFA"/>
      <stop offset="100%" stop-color="#60A5FA"/>
    </linearGradient>
  </defs>

  <!-- Abstract S mark -->
  <g transform="translate(4,4)">
    <path d="M14,14 C14,10 16,8 20,8 L26,8 C30,8 32,10 32,14 C32,18 30,20 26,20 L18,20 C14,20 12,22 12,26 C12,30 14,32 18,32 L24,32"
          stroke="url(#mg)" stroke-width="3.5" stroke-linecap="round" fill="none"/>
    <path d="M28,26 C28,30 26,32 22,32 L18,32"
          stroke="url(#mg2)" stroke-width="3.5" stroke-linecap="round" fill="none" opacity="0.7"/>
    <circle cx="20" cy="20" r="2" fill="url(#mg)" opacity="0.8"/>
  </g>

  <!-- Text -->
  <text x="52" y="40" font-family="Inter, -apple-system, BlinkMacSystemFont, sans-serif" font-size="26" font-weight="700" fill="#F1F5F9" letter-spacing="-0.5">Savarez Cloud</text>
</svg>
